<?xml version="1.0" encoding="UTF-8" standalone="no"?>
<!DOCTYPE svg PUBLIC "-//W3C//DTD SVG 1.1//EN"
 "http://www.w3.org/Graphics/SVG/1.1/DTD/svg11.dtd">
<!-- Generated by graphviz version 2.38.0 (20140413.2041)
 -->
<!-- Title: G Pages: 1 -->
<svg width="360pt" height="342pt"
 viewBox="0.00 0.00 360.25 342.00" xmlns="http://www.w3.org/2000/svg" xmlns:xlink="http://www.w3.org/1999/xlink">
<g id="graph0" class="graph" transform="scale(1 1) rotate(0) translate(4 338)">
<title>G</title>
<polygon fill="white" stroke="none" points="-4,4 -4,-338 356.254,-338 356.254,4 -4,4"/>
<!-- a -->
<g id="node1" class="node"><title>a</title>
<text text-anchor="middle" x="129.5" y="-318.8" font-family="Times,serif" font-size="14.00">Command to</text>
<text text-anchor="middle" x="129.5" y="-303.8" font-family="Times,serif" font-size="14.00">achieve goal</text>
</g>
<!-- b -->
<g id="node2" class="node"><title>b</title>
<polygon fill="none" stroke="black" points="176.5,-258 82.5,-258 82.5,-222 176.5,-222 176.5,-258"/>
<text text-anchor="middle" x="129.5" y="-236.3" font-family="Times,serif" font-size="14.00">Evaluate Goal</text>
</g>
<!-- a&#45;&gt;b -->
<g id="edge1" class="edge"><title>a&#45;&gt;b</title>
<path fill="none" stroke="black" d="M129.5,-295.686C129.5,-295.686 129.5,-268.217 129.5,-268.217"/>
<polygon fill="black" stroke="black" points="133,-268.217 129.5,-258.217 126,-268.217 133,-268.217"/>
</g>
<!-- bb -->
<g id="node3" class="node"><title>bb</title>
<text text-anchor="middle" x="305.5" y="-243.8" font-family="Times,serif" font-size="14.00">Do not try</text>
<text text-anchor="middle" x="305.5" y="-228.8" font-family="Times,serif" font-size="14.00">to achieve</text>
</g>
<!-- b&#45;&gt;bb -->
<g id="edge5" class="edge"><title>b:e&#45;&gt;bb:w</title>
<path fill="none" stroke="black" d="M176.5,-240C176.5,-240 258.5,-240 258.5,-240"/>
<polygon fill="black" stroke="black" points="258.5,-243.5 268.5,-240 258.5,-236.5 258.5,-243.5"/>
<text text-anchor="middle" x="200" y="-243.8" font-family="Times,serif" font-size="14.00">Reject</text>
</g>
<!-- c -->
<g id="node4" class="node"><title>c</title>
<polygon fill="none" stroke="black" points="192,-184 67,-184 67,-146 192,-146 192,-184"/>
<text text-anchor="middle" x="129.5" y="-168.8" font-family="Times,serif" font-size="14.00">Select method</text>
<text text-anchor="middle" x="129.5" y="-153.8" font-family="Times,serif" font-size="14.00">for this type of goal</text>
</g>
<!-- b&#45;&gt;c -->
<g id="edge2" class="edge"><title>b&#45;&gt;c</title>
<path fill="none" stroke="black" d="M129.5,-221.845C129.5,-221.845 129.5,-194.035 129.5,-194.035"/>
<polygon fill="black" stroke="black" points="133,-194.035 129.5,-184.035 126,-194.035 133,-194.035"/>
</g>
<!-- d -->
<g id="node5" class="node"><title>d</title>
<polygon fill="none" stroke="black" points="182,-109 77,-109 77,-73 182,-73 182,-109"/>
<text text-anchor="middle" x="129.5" y="-87.3" font-family="Times,serif" font-size="14.00">Execute method</text>
</g>
<!-- c&#45;&gt;d -->
<g id="edge3" class="edge"><title>c&#45;&gt;d</title>
<path fill="none" stroke="black" d="M129.5,-145.943C129.5,-145.943 129.5,-119.227 129.5,-119.227"/>
<polygon fill="black" stroke="black" points="133,-119.227 129.5,-109.227 126,-119.227 133,-119.227"/>
</g>
<!-- d&#45;&gt;b -->
<g id="edge6" class="edge"><title>d:w&#45;&gt;b:w</title>
<path fill="none" stroke="black" d="M76.5,-91C76.5,-91 49,-91 49,-91 49,-91 49,-240 49,-240 49,-240 72.5,-240 72.5,-240"/>
<polygon fill="black" stroke="black" points="72.5,-243.5 82.5,-240 72.5,-236.5 72.5,-243.5"/>
<text text-anchor="middle" x="24.5" y="-197.3" font-family="Times,serif" font-size="14.00">Goal</text>
<text text-anchor="middle" x="24.5" y="-182.3" font-family="Times,serif" font-size="14.00">not</text>
<text text-anchor="middle" x="24.5" y="-167.3" font-family="Times,serif" font-size="14.00">achieved</text>
</g>
<!-- e -->
<g id="node6" class="node"><title>e</title>
<text text-anchor="middle" x="129.5" y="-14.3" font-family="Times,serif" font-size="14.00">Goal achieved</text>
</g>
<!-- d&#45;&gt;e -->
<g id="edge4" class="edge"><title>d&#45;&gt;e</title>
<path fill="none" stroke="black" d="M129.5,-72.9551C129.5,-72.9551 129.5,-46.0904 129.5,-46.0904"/>
<polygon fill="black" stroke="black" points="133,-46.0903 129.5,-36.0904 126,-46.0904 133,-46.0903"/>
</g>
</g>
</svg>
